<svg xmlns="http://www.w3.org/2000/svg" width="1200" height="760" viewBox="0 0 1200 760" fill="none">
  <rect width="1200" height="760" rx="36" fill="#101a31" />
  <rect x="44" y="44" width="1112" height="672" rx="28" fill="#0f172a" stroke="#3b82f6" stroke-opacity=".2" />
  <rect x="86" y="98" width="1028" height="92" rx="24" fill="#111c34" />
  <rect x="118" y="130" width="260" height="28" rx="14" fill="#f1f5f9" fill-opacity=".92" />
  <rect x="866" y="122" width="216" height="42" rx="21" fill="#2563eb" />
  <rect x="86" y="232" width="310" height="194" rx="26" fill="#182544" />
  <rect x="444" y="232" width="310" height="194" rx="26" fill="#182544" />
  <rect x="802" y="232" width="312" height="194" rx="26" fill="#182544" />
  <rect x="86" y="462" width="310" height="194" rx="26" fill="#172554" />
  <rect x="444" y="462" width="310" height="194" rx="26" fill="#172554" />
  <rect x="802" y="462" width="312" height="194" rx="26" fill="#172554" />
  <circle cx="241" cy="330" r="56" fill="#3b82f6" fill-opacity=".26" />
  <circle cx="599" cy="330" r="56" fill="#3b82f6" fill-opacity=".26" />
  <circle cx="957" cy="330" r="56" fill="#3b82f6" fill-opacity=".26" />
  <rect x="146" y="560" width="190" height="28" rx="14" fill="#f1f5f9" fill-opacity=".9" />
  <rect x="504" y="560" width="190" height="28" rx="14" fill="#f1f5f9" fill-opacity=".9" />
  <rect x="862" y="560" width="190" height="28" rx="14" fill="#f1f5f9" fill-opacity=".9" />
  <text x="116" y="218" fill="#3b82f6" font-family="Inter, Arial, sans-serif" font-size="28" font-weight="700">
    Cosme Racoes
  </text>
  <text x="116" y="698" fill="#f1f5f9" font-family="Inter, Arial, sans-serif" font-size="30" font-weight="700">
    Catalogo online
  </text>
</svg>
