<svg xmlns="http://www.w3.org/2000/svg" width="1200" height="760" viewBox="0 0 1200 760" fill="none">
  <rect width="1200" height="760" rx="36" fill="#101a31" />
  <rect x="44" y="44" width="1112" height="672" rx="28" fill="#0f172a" stroke="#3b82f6" stroke-opacity=".22" />
  <rect x="86" y="96" width="1028" height="120" rx="26" fill="#111c34" />
  <circle cx="230" cy="392" r="154" fill="#182544" />
  <rect x="438" y="278" width="530" height="48" rx="24" fill="#f1f5f9" />
  <rect x="438" y="344" width="420" height="28" rx="14" fill="#94a3b8" fill-opacity=".44" />
  <rect x="438" y="388" width="470" height="28" rx="14" fill="#94a3b8" fill-opacity=".28" />
  <rect x="438" y="444" width="230" height="58" rx="20" fill="#2563eb" />
  <rect x="86" y="590" width="1028" height="86" rx="24" fill="#111c34" />
  <rect x="118" y="622" width="180" height="24" rx="12" fill="#3b82f6" fill-opacity=".72" />
  <rect x="320" y="622" width="180" height="24" rx="12" fill="#3b82f6" fill-opacity=".46" />
  <rect x="522" y="622" width="180" height="24" rx="12" fill="#3b82f6" fill-opacity=".32" />
  <text x="470" y="186" fill="#3b82f6" font-family="Inter, Arial, sans-serif" font-size="28" font-weight="700">
    Gabriela Mendes
  </text>
  <text x="438" y="484" fill="#f1f5f9" font-family="Inter, Arial, sans-serif" font-size="30" font-weight="700">
    Portfolio profissional
  </text>
</svg>
