<svg xmlns="http://www.w3.org/2000/svg" width="1200" height="760" viewBox="0 0 1200 760" fill="none">
  <rect width="1200" height="760" rx="36" fill="#101a31" />
  <rect x="44" y="44" width="1112" height="672" rx="28" fill="#0f172a" stroke="#3b82f6" stroke-opacity=".2" />
  <rect x="96" y="108" width="1008" height="82" rx="20" fill="#182544" />
  <rect x="128" y="136" width="220" height="26" rx="13" fill="#f1f5f9" fill-opacity=".9" />
  <rect x="852" y="130" width="196" height="38" rx="19" fill="#2563eb" />
  <rect x="96" y="228" width="322" height="404" rx="28" fill="#172554" />
  <rect x="442" y="228" width="322" height="404" rx="28" fill="#0f3b77" />
  <rect x="788" y="228" width="316" height="404" rx="28" fill="#14396c" />
  <rect x="150" y="548" width="214" height="28" rx="14" fill="#f1f5f9" fill-opacity=".92" />
  <rect x="496" y="548" width="214" height="28" rx="14" fill="#f1f5f9" fill-opacity=".92" />
  <rect x="842" y="548" width="206" height="28" rx="14" fill="#f1f5f9" fill-opacity=".92" />
  <rect x="96" y="658" width="210" height="18" rx="9" fill="#94a3b8" fill-opacity=".3" />
  <text x="650" y="284" fill="#f1f5f9" font-family="Inter, Arial, sans-serif" font-size="44" font-weight="800">
    Nuvle Store
  </text>
  <text x="650" y="544" fill="#f1f5f9" font-family="Inter, Arial, sans-serif" font-size="28" font-weight="700">
    Catalogo online
  </text>
</svg>
