<svg xmlns="http://www.w3.org/2000/svg" width="1200" height="760" viewBox="0 0 1200 760" fill="none">
  <rect width="1200" height="760" rx="36" fill="#101a31" />
  <rect x="44" y="44" width="1112" height="672" rx="28" fill="#0f172a" stroke="#3b82f6" stroke-opacity=".22" />
  <rect x="88" y="98" width="1024" height="86" rx="24" fill="#111c34" />
  <rect x="120" y="126" width="228" height="30" rx="15" fill="#f1f5f9" fill-opacity=".9" />
  <rect x="872" y="120" width="208" height="42" rx="21" fill="#2563eb" />
  <rect x="88" y="222" width="1024" height="242" rx="30" fill="#172554" />
  <rect x="140" y="296" width="372" height="44" rx="22" fill="#f1f5f9" />
  <rect x="140" y="360" width="280" height="26" rx="13" fill="#94a3b8" fill-opacity=".44" />
  <rect x="140" y="410" width="246" height="56" rx="20" fill="#3b82f6" />
  <rect x="88" y="504" width="312" height="152" rx="26" fill="#111c34" />
  <rect x="444" y="504" width="312" height="152" rx="26" fill="#111c34" />
  <rect x="800" y="504" width="312" height="152" rx="26" fill="#111c34" />
  <rect x="126" y="542" width="220" height="22" rx="11" fill="#3b82f6" fill-opacity=".7" />
  <rect x="482" y="542" width="220" height="22" rx="11" fill="#3b82f6" fill-opacity=".54" />
  <rect x="838" y="542" width="220" height="22" rx="11" fill="#3b82f6" fill-opacity=".36" />
  <text x="138" y="690" fill="#f1f5f9" font-family="Inter, Arial, sans-serif" font-size="30" font-weight="700">
    Site institucional
  </text>
</svg>
