<svg xmlns="http://www.w3.org/2000/svg" width="1200" height="630" viewBox="0 0 1200 630" fill="none">
  <rect width="1200" height="630" fill="#08111d" />
  <circle cx="210" cy="116" r="230" fill="#2563eb" fill-opacity=".18" />
  <circle cx="1030" cy="540" r="270" fill="#7c3aed" fill-opacity=".13" />
  <circle cx="900" cy="110" r="190" fill="#38bdf8" fill-opacity=".10" />
  <rect x="76" y="84" width="1048" height="462" rx="38" fill="#111a2b" fill-opacity=".92" stroke="#93c5fd" stroke-opacity=".24" />
  <rect x="100" y="108" width="1000" height="414" rx="30" fill="#0f172a" fill-opacity=".42" stroke="#7c3aed" stroke-opacity=".16" />
  <text x="122" y="186" fill="#93c5fd" font-family="Manrope, Arial, sans-serif" font-size="28" font-weight="800" letter-spacing="3">
    MARCELO HENRIQUE DEV
  </text>
  <text x="122" y="276" fill="#f8fafc" font-family="Manrope, Arial, sans-serif" font-size="62" font-weight="800">
    Desenvolvedor Full Stack
  </text>
  <text x="122" y="348" fill="#f8fafc" font-family="Manrope, Arial, sans-serif" font-size="62" font-weight="800">
    em Recife
  </text>
  <text x="122" y="416" fill="#b6c2d2" font-family="Manrope, Arial, sans-serif" font-size="28" font-weight="500">
    Sites premium, UI/UX, React, Next.js e sistemas web personalizados
  </text>
  <rect x="122" y="462" width="370" height="64" rx="18" fill="#2563eb" />
  <text x="158" y="503" fill="#f8fafc" font-family="Manrope, Arial, sans-serif" font-size="26" font-weight="800">
    marcelodev.online
  </text>
  <path d="M890 188h134c28 0 50 22 50 50v142c0 28-22 50-50 50H780c-28 0-50-22-50-50v-34" stroke="#93c5fd" stroke-opacity=".34" stroke-width="3" />
  <rect x="710" y="228" width="284" height="176" rx="24" fill="#18243a" stroke="#a855f7" stroke-opacity=".45" />
  <rect x="744" y="266" width="176" height="18" rx="9" fill="#93c5fd" fill-opacity=".45" />
  <rect x="744" y="306" width="214" height="14" rx="7" fill="#f8fafc" fill-opacity=".18" />
  <rect x="744" y="336" width="150" height="14" rx="7" fill="#f8fafc" fill-opacity=".14" />
  <circle cx="965" cy="252" r="42" fill="#2563eb" fill-opacity=".22" />
</svg>
